<?xml version="1.0" encoding="UTF-8" standalone="no"?>
<!DOCTYPE svg PUBLIC "-//W3C//DTD SVG 1.1//EN" "http://www.w3.org/Graphics/SVG/1.1/DTD/svg11.dtd">
<svg width="100%" height="100%" viewBox="0 0 18 17" version="1.1" xmlns="http://www.w3.org/2000/svg" xmlns:xlink="http://www.w3.org/1999/xlink" xml:space="preserve" xmlns:serif="http://www.serif.com/" style="fill-rule:evenodd;clip-rule:evenodd;stroke-linejoin:round;stroke-miterlimit:1.41421;">
    <g id="Artboard1" transform="matrix(0.256549,0,0,1,0,0)">
        <rect x="0" y="0" width="69.297" height="17" style="fill:none;"/>
        <clipPath id="_clip1">
            <rect x="0" y="0" width="69.297" height="17"/>
        </clipPath>
        <g clip-path="url(#_clip1)">
            <g transform="matrix(3.8979,0,0,1,205.074,0.937459)">
                <path d="M-35.76,4.74C-35.472,4.785 -35.245,4.917 -35.079,5.139C-34.913,5.36 -34.836,5.604 -34.847,5.869C-34.858,6.135 -34.963,6.367 -35.162,6.566L-38.682,9.986L-37.852,14.834C-37.807,15.1 -37.857,15.349 -38.001,15.581C-38.145,15.813 -38.35,15.963 -38.615,16.029C-38.881,16.096 -39.135,16.062 -39.379,15.93L-43.729,13.672L-48.078,15.93C-48.322,16.062 -48.576,16.096 -48.842,16.029C-49.107,15.963 -49.312,15.813 -49.456,15.581C-49.6,15.349 -49.65,15.1 -49.605,14.834L-48.775,9.986L-52.295,6.566C-52.494,6.367 -52.599,6.135 -52.61,5.869C-52.621,5.604 -52.544,5.36 -52.378,5.139C-52.212,4.917 -51.985,4.785 -51.697,4.74L-46.85,4.043L-44.691,-0.34C-44.559,-0.605 -44.365,-0.783 -44.11,-0.871C-43.856,-0.96 -43.601,-0.96 -43.347,-0.871C-43.092,-0.783 -42.898,-0.605 -42.766,-0.34L-40.607,4.043L-35.76,4.74ZM-39.811,9.621L-35.893,5.803L-41.305,5.006L-43.729,0.125L-46.152,5.006L-51.531,5.803L-47.646,9.621L-48.543,15L-43.729,12.443L-38.881,15L-39.811,9.621Z" style="fill:rgb(153,153,153);"/>
            </g>
        </g>
    </g>
</svg>
