<svg xmlns="http://www.w3.org/2000/svg" width="25" height="25" viewBox="0 0 25 25">
  <path fill="#F7F7F7" fill-rule="evenodd" d="M1278.66992,18.4180202 C1279.22331,18.2227082 1279.77669,18.2227082 1280.33008,18.4180202 L1290.48633,22.2266049 C1290.94206,22.4219169 1291.30827,22.714885 1291.58496,23.105509 C1291.86165,23.4961331 1292,23.9355852 1292,24.4238653 L1292,35.4101672 C1292,35.865895 1291.88607,36.2809331 1291.6582,36.6552814 C1291.43034,37.0296297 1291.10482,37.3144595 1290.68164,37.5097716 L1280.52539,42.5878845 C1280.19987,42.7506442 1279.85807,42.8320245 1279.5,42.8320245 C1279.14193,42.8320245 1278.80013,42.7506442 1278.47461,42.5878845 L1268.31836,37.5097716 C1267.89518,37.3144595 1267.56966,37.0296297 1267.3418,36.6552814 C1267.11393,36.2809331 1267,35.865895 1267,35.4101672 L1267,24.4238653 C1267,23.9355852 1267.13835,23.4961331 1267.41504,23.105509 C1267.69173,22.714885 1268.05794,22.4219169 1268.51367,22.2266049 L1278.66992,18.4180202 Z M1279.49997,19.7852044 L1268.5625,23.8867572 L1279.49997,28.671902 L1290.43744,23.8867572 L1279.49997,19.7852044 Z M1268.5625,25.5957375 L1268.5625,35.8984473 L1278.71872,40.9765602 L1278.71872,29.9902582 L1268.5625,25.5957375 Z M1280.28122,40.9765602 L1290.43744,35.8984473 L1290.43744,25.5957375 L1280.28122,29.9902582 L1280.28122,40.9765602 Z" transform="translate(-1267 -18)"/>
</svg>
