<svg xmlns="http://www.w3.org/2000/svg" width="24" height="24" viewBox="0 0 24 24">
  <path fill="#F7F7F7" fill-rule="evenodd" d="M201.365234,41.5273401 C201.455078,41.6171836 201.5,41.7369753 201.5,41.8867143 C201.5,42.0364532 201.455078,42.1712186 201.365234,42.2910102 L200.916016,42.6953061 C200.796224,42.8150977 200.661458,42.8749931 200.511719,42.8749931 C200.361979,42.8749931 200.242188,42.8150977 200.152344,42.6953061 L194.357422,36.900398 C194.23763,36.8105545 194.177734,36.6907629 194.177734,36.5410239 L194.177734,36.0918062 C193.339192,36.8704499 192.373372,37.4768938 191.280273,37.9111378 C190.187175,38.3453818 189.041667,38.5625034 187.84375,38.5625034 C186.136719,38.5625034 184.57194,38.1432338 183.149414,37.3046939 C181.726888,36.466154 180.596354,35.3356233 179.757812,33.9131004 C178.919271,32.4905776 178.5,30.9258029 178.5,29.2187757 C178.5,27.5117485 178.919271,25.9469738 179.757812,24.524451 C180.596354,23.1019281 181.726888,21.9713974 183.149414,21.1328575 C184.57194,20.2943176 186.136719,19.875048 187.84375,19.875048 C189.550781,19.875048 191.11556,20.2943176 192.538086,21.1328575 C193.960612,21.9713974 195.091146,23.1019281 195.929688,24.524451 C196.768229,25.9469738 197.1875,27.5117485 197.1875,29.2187757 C197.1875,30.4166897 196.970378,31.5621948 196.536133,32.6552909 C196.101888,33.7483871 195.495442,34.7142051 194.716797,35.552745 L195.166016,35.552745 C195.315755,35.552745 195.450521,35.6126404 195.570312,35.732432 L201.365234,41.5273401 Z M187.843728,37.1250069 C189.281224,37.1250069 190.606416,36.7731199 191.819304,36.0693453 C193.032192,35.3655707 193.990523,34.4072399 194.694297,33.1943522 C195.398072,31.9814644 195.749959,30.6562723 195.749959,29.2187757 C195.749959,27.7812791 195.398072,26.456087 194.694297,25.2431992 C193.990523,24.0303115 193.032192,23.0719807 191.819304,22.3682061 C190.606416,21.6644315 189.281224,21.3125446 187.843728,21.3125446 C186.406231,21.3125446 185.081039,21.6644315 183.868151,22.3682061 C182.655264,23.0719807 181.696933,24.0303115 180.993158,25.2431992 C180.289384,26.456087 179.937497,27.7812791 179.937497,29.2187757 C179.937497,30.6562723 180.289384,31.9814644 180.993158,33.1943522 C181.696933,34.4072399 182.655264,35.3655707 183.868151,36.0693453 C185.081039,36.7731199 186.406231,37.1250069 187.843728,37.1250069 Z" transform="translate(-178 -19)"/>
</svg>
