<svg xmlns="http://www.w3.org/2000/svg" width="22" height="19" viewBox="0 0 22 19">
  <path fill="#F7F7F7" fill-rule="evenodd" d="M141.64448,23.6914451 L120.355468,23.6914451 C120.290364,23.6914451 120.22526,23.6588929 120.160156,23.5937891 C120.095052,23.5286854 120.0625,23.4635808 120.0625,23.3984771 L120.0625,22.2266049 C120.0625,22.1615011 120.095052,22.0963966 120.160156,22.0312928 C120.22526,21.9661891 120.290364,21.9336368 120.355468,21.9336368 L141.64448,21.9336368 C141.709584,21.9336368 141.774688,21.9661891 141.839792,22.0312928 C141.904896,22.0963966 141.937448,22.1615011 141.937448,22.2266049 L141.937448,23.3984771 C141.937448,23.4635808 141.904896,23.5286854 141.839792,23.5937891 C141.774688,23.6588929 141.709584,23.6914451 141.64448,23.6914451 Z M141.64448,31.5039265 L120.355468,31.5039265 C120.290364,31.5039265 120.22526,31.4713743 120.160156,31.4062705 C120.095052,31.3411667 120.0625,31.2760622 120.0625,31.2109585 L120.0625,30.0390862 C120.0625,29.9739825 120.095052,29.908878 120.160156,29.8437742 C120.22526,29.7786705 120.290364,29.7461182 120.355468,29.7461182 L141.64448,29.7461182 C141.709584,29.7461182 141.774688,29.7786705 141.839792,29.8437742 C141.904896,29.908878 141.937448,29.9739825 141.937448,30.0390862 L141.937448,31.2109585 C141.937448,31.2760622 141.904896,31.3411667 141.839792,31.4062705 C141.774688,31.4713743 141.709584,31.5039265 141.64448,31.5039265 Z M141.64448,39.3164079 L120.355468,39.3164079 C120.290364,39.3164079 120.22526,39.2838556 120.160156,39.2187519 C120.095052,39.1536481 120.0625,39.0885436 120.0625,39.0234398 L120.0625,37.8515676 C120.0625,37.7864639 120.095052,37.7213594 120.160156,37.6562556 C120.22526,37.5911518 120.290364,37.5585996 120.355468,37.5585996 L141.64448,37.5585996 C141.709584,37.5585996 141.774688,37.5911518 141.839792,37.6562556 C141.904896,37.7213594 141.937448,37.7864639 141.937448,37.8515676 L141.937448,39.0234398 C141.937448,39.0885436 141.904896,39.1536481 141.839792,39.2187519 C141.774688,39.2838556 141.709584,39.3164079 141.64448,39.3164079 Z" transform="translate(-120 -21)"/>
</svg>
