<svg xmlns="http://www.w3.org/2000/svg" width="57" height="51" viewBox="0 0 57 51">
  <path fill="#C08059" fill-rule="evenodd" d="M1267.19522,230.01175 L1269.14834,228.058629 C1269.34365,227.928422 1269.55524,227.912145 1269.7831,228.009801 C1270.01096,228.107457 1270.1249,228.286493 1270.1249,228.546909 L1270.1249,244.562496 C1270.1249,245.864576 1269.66917,246.971345 1268.75771,247.882801 C1267.84626,248.794257 1266.73949,249.249985 1265.43741,249.249985 L1231.06249,249.249985 C1229.76041,249.249985 1228.65364,248.794257 1227.74218,247.882801 C1226.83073,246.971345 1226.375,245.864576 1226.375,244.562496 L1226.375,210.187578 C1226.375,208.885498 1226.83073,207.778729 1227.74218,206.867274 C1228.65364,205.955818 1229.76041,205.500089 1231.06249,205.500089 L1259.57805,205.500089 C1259.83846,205.500089 1260.0175,205.614022 1260.11515,205.841885 C1260.21281,206.069749 1260.16398,206.281338 1259.96867,206.47665 L1258.11321,208.42977 C1257.983,208.559977 1257.82024,208.625082 1257.62493,208.625082 L1231.06249,208.625082 C1230.60676,208.625082 1230.23241,208.771566 1229.93944,209.064534 C1229.64648,209.357502 1229.49999,209.73185 1229.49999,210.187578 L1229.49999,244.562496 C1229.49999,245.018225 1229.64648,245.392572 1229.93944,245.68554 C1230.23241,245.978509 1230.60676,246.124993 1231.06249,246.124993 L1265.43741,246.124993 C1265.89314,246.124993 1266.26748,245.978509 1266.56045,245.68554 C1266.85342,245.392572 1266.9999,245.018225 1266.9999,244.562496 L1266.9999,230.50003 C1266.9999,230.304718 1267.06501,230.141957 1267.19522,230.01175 Z M1281.45299,211.35945 L1250.88666,241.925784 L1241.12106,243 C1240.47002,243.065105 1239.91663,242.869792 1239.46091,242.414064 C1239.00518,241.958335 1238.80987,241.404952 1238.87497,240.753912 L1239.94919,230.98831 L1270.51552,200.421977 C1271.29677,199.640728 1272.25705,199.250104 1273.39637,199.250104 C1274.53569,199.250104 1275.49598,199.640728 1276.27722,200.421977 L1281.45299,205.597745 C1282.23424,206.378994 1282.62487,207.339277 1282.62487,208.478598 C1282.62487,209.617919 1282.23424,210.578202 1281.45299,211.35945 Z M1272.27333,216.144595 L1265.73037,209.601642 L1242.97652,232.355494 L1242.19527,239.777351 L1249.51948,238.898447 L1272.27333,216.144595 Z M1279.20691,207.746178 L1274.12879,202.668065 C1273.93348,202.472753 1273.68934,202.375097 1273.39637,202.375097 C1273.1034,202.375097 1272.85926,202.472753 1272.66395,202.668065 L1267.97646,207.355554 L1274.51942,213.898507 L1279.20691,209.211018 C1279.40222,209.015706 1279.49987,208.771566 1279.49987,208.478598 C1279.49987,208.18563 1279.40222,207.94149 1279.20691,207.746178 Z" transform="translate(-1226 -199)"/>
</svg>
