<svg xmlns="http://www.w3.org/2000/svg" width="25" height="25" viewBox="0 0 25 25">
  <path fill="#F7F7F7" fill-rule="evenodd" d="M129.49997,18.5156762 C131.680955,18.5156762 133.699179,19.0609226 135.554643,20.1514145 C137.410108,21.2419065 138.883086,22.714885 139.973578,24.5703493 C141.06407,26.4258136 141.609316,28.4440377 141.609316,30.6250224 C141.609316,32.806007 141.06407,34.8242311 139.973578,36.6796954 C138.883086,38.5351597 137.410108,40.0081382 135.554643,41.0986302 C133.699179,42.1891221 131.680955,42.7343685 129.49997,42.7343685 C127.318986,42.7343685 125.300761,42.1891221 123.445297,41.0986302 C121.589833,40.0081382 120.116854,38.5351597 119.026362,36.6796954 C117.93587,34.8242311 117.390624,32.806007 117.390624,30.6250224 C117.390624,28.4440377 117.93587,26.4258136 119.026362,24.5703493 C120.116854,22.714885 121.589833,21.2419065 123.445297,20.1514145 C125.300761,19.0609226 127.318986,18.5156762 129.49997,18.5156762 Z M129.49997,41.1718722 C131.420538,41.1718722 133.186485,40.6998679 134.797809,39.75586 C136.409133,38.811852 137.6868,37.5260473 138.630808,35.8984473 C139.574816,34.2708472 140.04682,32.5049007 140.04682,30.6006083 C140.04682,28.696316 139.574816,26.9385077 138.630808,25.3271834 C137.6868,23.7158591 136.400995,22.4381927 134.773395,21.4941847 C133.145795,20.5501768 131.379849,20.0781725 129.475556,20.0781725 C127.571264,20.0781725 125.813456,20.5501768 124.202131,21.4941847 C122.590807,22.4381927 121.313141,23.7239974 120.369133,25.3515974 C119.425125,26.9791975 118.95312,28.745144 118.95312,30.6494364 C118.95312,32.5537287 119.425125,34.311537 120.369133,35.9228613 C121.313141,37.5341856 122.598945,38.811852 124.226545,39.75586 C125.854145,40.6998679 127.611954,41.1718722 129.49997,41.1718722 Z M130.769498,30.6250224 L134.138631,33.9941549 C134.236287,34.1243632 134.285115,34.2708472 134.285115,34.433607 C134.285115,34.5963668 134.236287,34.7265751 134.138631,34.8242311 L133.699179,35.2636832 C133.601523,35.3613392 133.471315,35.4101672 133.308555,35.4101672 C133.145795,35.4101672 132.999311,35.3613392 132.869103,35.2636832 L129.49997,31.8457226 L126.130838,35.2636832 C126.000629,35.3613392 125.854145,35.4101672 125.691386,35.4101672 C125.528626,35.4101672 125.398417,35.3613392 125.300761,35.2636832 L124.861309,34.8242311 C124.763653,34.7265751 124.714825,34.5963668 124.714825,34.433607 C124.714825,34.2708472 124.763653,34.1243632 124.861309,33.9941549 L128.27927,30.6250224 L124.861309,27.2558898 C124.763653,27.1256815 124.714825,26.9791975 124.714825,26.8164377 C124.714825,26.6536779 124.763653,26.5234696 124.861309,26.4258136 L125.300761,25.9863615 C125.398417,25.8887055 125.528626,25.8398775 125.691386,25.8398775 C125.854145,25.8398775 126.000629,25.8887055 126.130838,25.9863615 L129.49997,29.3554941 L132.869103,25.9863615 C132.999311,25.8887055 133.145795,25.8398775 133.308555,25.8398775 C133.471315,25.8398775 133.601523,25.8887055 133.699179,25.9863615 L134.138631,26.4258136 C134.236287,26.5234696 134.285115,26.6536779 134.285115,26.8164377 C134.285115,26.9791975 134.236287,27.1256815 134.138631,27.2558898 L130.769498,30.6250224 Z" transform="translate(-117 -18)"/>
</svg>
