<svg xmlns="http://www.w3.org/2000/svg" width="50" height="49" viewBox="0 0 50 49">
  <path fill="#C08059" fill-rule="evenodd" d="M1077.67184,229.007853 C1077.34632,229.007853 1077.06963,228.89392 1076.84177,228.666057 C1076.6139,228.438193 1076.49997,228.1615 1076.49997,227.835981 L1076.49997,226.664109 C1076.49997,226.338589 1076.6139,226.061896 1076.84177,225.834032 C1077.06963,225.606169 1077.34632,225.492236 1077.67184,225.492236 L1100.32804,225.492236 C1100.65356,225.492236 1100.93025,225.606169 1101.15811,225.834032 C1101.38598,226.061896 1101.49991,226.338589 1101.49991,226.664109 L1101.49991,227.835981 C1101.49991,228.1615 1101.38598,228.438193 1101.15811,228.666057 C1100.93025,228.89392 1100.65356,229.007853 1100.32804,229.007853 L1077.67184,229.007853 Z M1113.21863,227.250045 C1113.21863,231.612014 1112.12814,235.648462 1109.94716,239.359391 C1107.76617,243.070319 1104.82022,246.016276 1101.10929,248.19726 C1097.39836,250.378244 1093.36191,251.468737 1088.99994,251.468737 C1084.63797,251.468737 1080.60152,250.378244 1076.89059,248.19726 C1073.17967,246.016276 1070.23371,243.070319 1068.05272,239.359391 C1065.87174,235.648462 1064.78125,231.612014 1064.78125,227.250045 C1064.78125,222.888075 1065.87174,218.851627 1068.05272,215.140699 C1070.23371,211.42977 1073.17967,208.483813 1076.89059,206.302829 C1080.60152,204.121845 1084.63797,203.031352 1088.99994,203.031352 C1093.36191,203.031352 1097.39836,204.121845 1101.10929,206.302829 C1104.82022,208.483813 1107.76617,211.42977 1109.94716,215.140699 C1112.12814,218.851627 1113.21863,222.888075 1113.21863,227.250045 Z M1110.09364,227.250045 C1110.09364,223.408909 1109.14963,219.877015 1107.26162,216.654367 C1105.3736,213.431718 1102.80199,210.876385 1099.54679,208.988369 C1096.29159,207.100354 1092.7597,206.156345 1088.95111,206.156345 C1085.14253,206.156345 1081.62691,207.100354 1078.40426,208.988369 C1075.18161,210.876385 1072.62628,213.447995 1070.73827,216.703195 C1068.85025,219.958395 1067.90624,223.490288 1067.90624,227.298873 C1067.90624,231.107457 1068.85025,234.623074 1070.73827,237.845723 C1072.62628,241.068371 1075.19789,243.623704 1078.45309,245.51172 C1081.70829,247.399736 1085.24018,248.343744 1089.04877,248.343744 C1092.85735,248.343744 1096.37297,247.399736 1099.59562,245.51172 C1102.81827,243.623704 1105.3736,241.052095 1107.26162,237.796895 C1109.14963,234.541694 1110.09364,231.026078 1110.09364,227.250045 Z" transform="translate(-1064 -203)"/>
</svg>
