<svg xmlns="http://www.w3.org/2000/svg" width="25" height="25" viewBox="0 0 25 25">
  <path fill="#C08059" fill-rule="evenodd" d="M24.6093163,16.6250224 C24.6093163,18.806007 24.06407,20.8242311 22.973578,22.6796954 C21.8830861,24.5351597 20.4101076,26.0081382 18.5546433,27.0986302 C16.6991789,28.1891221 14.6809548,28.7343685 12.4999702,28.7343685 C10.3189856,28.7343685 8.30076146,28.1891221 6.44529713,27.0986302 C4.58983281,26.0081382 3.1168543,24.5351597 2.02636236,22.6796954 C0.935870413,20.8242311 0.390624069,18.806007 0.390624069,16.6250224 C0.390624069,14.4440377 0.935870413,12.4258136 2.02636236,10.5703493 C3.1168543,8.71488496 4.58983281,7.24190645 6.44529713,6.15141451 C8.30076146,5.06092257 10.3189856,4.51567622 12.4999702,4.51567622 C14.6809548,4.51567622 16.6991789,5.06092257 18.5546433,6.15141451 C20.4101076,7.24190645 21.8830861,8.71488496 22.973578,10.5703493 C24.06407,12.4258136 24.6093163,14.4440377 24.6093163,16.6250224 Z M12.4999702,27.1718722 C14.4205383,27.1718722 16.1864848,26.6998679 17.7978091,25.75586 C19.4091334,24.811852 20.6867999,23.5260473 21.6308078,21.8984473 C22.5748157,20.2708472 23.0468201,18.5049007 23.0468201,16.6006083 C23.0468201,14.696316 22.5748157,12.9385077 21.6308078,11.3271834 C20.6867999,9.71585914 19.4009952,8.43819266 17.7733951,7.49418475 C16.1457951,6.55017683 14.3798485,6.0781725 12.4755562,6.0781725 C10.5712639,6.0781725 8.81345555,6.55017683 7.20213127,7.49418475 C5.59080698,8.43819266 4.31314051,9.72399739 3.36913259,11.3515974 C2.42512467,12.9791975 1.95312034,14.745144 1.95312034,16.6494364 C1.95312034,18.5537287 2.42512467,20.311537 3.36913259,21.9228613 C4.31314051,23.5341856 5.59894523,24.811852 7.22654527,25.75586 C8.85414531,26.6998679 10.6119536,27.1718722 12.4999702,27.1718722 Z M13.9159824,10.5703493 C14.0136385,10.4726933 14.1438467,10.4238653 14.3066065,10.4238653 C14.4693663,10.4238653 14.5995746,10.4726933 14.6972306,10.5703493 L15.0878547,10.9609734 C15.1855107,11.0586294 15.2343387,11.1888376 15.2343387,11.3515974 C15.2343387,11.5143572 15.1855107,11.6608412 15.0878547,11.7910495 L10.2050538,16.6250224 L15.0878547,21.4589952 C15.1855107,21.5892035 15.2343387,21.7356875 15.2343387,21.8984473 C15.2343387,22.0612071 15.1855107,22.2076911 15.0878547,22.3378994 L14.6972306,22.6796954 C14.5995746,22.7773514 14.4693663,22.8261794 14.3066065,22.8261794 C14.1438467,22.8261794 13.9973627,22.7773514 13.8671544,22.6796954 L8.25193345,17.0644744 C8.15427743,16.9342662 8.10544943,16.7877821 8.10544943,16.6250224 C8.10544943,16.4622626 8.15427743,16.3157785 8.25193345,16.1855703 L13.9159824,10.5703493 Z" transform="translate(0 -4)"/>
</svg>
