<?xml version="1.0" encoding="utf-8"?>
<!-- Generator: Adobe Illustrator 22.1.0, SVG Export Plug-In . SVG Version: 6.00 Build 0)  -->
<svg version="1.1" xmlns="http://www.w3.org/2000/svg" xmlns:xlink="http://www.w3.org/1999/xlink" x="0px" y="0px"
	 viewBox="0 0 216 216" style="enable-background:new 0 0 216 216;" xml:space="preserve">
<style type="text/css">
	.st0{display:none;}
	.st1{fill:#FFFFFF;}
	.st2{fill:none;stroke:#FFFFFF;stroke-miterlimit:10;}
</style>
<g id="Layer_1" class="st0">
</g>
<g id="Layer_2">
	<g>
		<g>
			<path class="st1" d="M105.5,137.2c0.5-0.1,0.8-0.4,0.8-0.8c0-0.5-0.5-0.9-1.5-0.9c-0.9,0-1.6,0.6-1.6,1.3c0,0.6,0.4,0.9,0.8,1
				c-0.5,0.1-0.9,0.4-0.9,0.8c0,0.5,0.5,1,1.6,1c1,0,1.6-0.6,1.6-1.3C106.4,137.7,106,137.4,105.5,137.2z M104.8,139.1
				c-0.5,0-0.8-0.3-0.8-0.6c0-0.2,0.1-0.4,0.3-0.6c0.7,0.2,1.2,0.4,1.2,0.8C105.5,139,105.2,139.1,104.8,139.1z M105.2,137.1
				c-0.6-0.2-1-0.3-1-0.7c0-0.2,0.2-0.4,0.6-0.4c0.4,0,0.7,0.3,0.7,0.6C105.5,136.7,105.4,136.9,105.2,137.1z"/>
			<path class="st1" d="M110.3,135.5h-1.1l-1.9,2.3v0.6h1.9v0.5h-0.7v0.6h2.2v-0.6h-0.6v-0.5h0.7v-0.6h-0.7V135.5z M109.3,137.8H108
				l1.2-1.6h0V137.8z"/>
		</g>
		<polygon class="st1" points="105.8,72.8 104.6,74.9 106.5,73.7 107.1,76.9 107.6,73.7 109.6,74.9 108.4,72.8 111.7,72.3 
			108.4,71.8 109.4,70.1 107.6,71 107.1,67.7 106.5,71 104.7,70.1 105.7,71.8 102.5,72.3 		"/>
		<g>
			<path class="st1" d="M88.7,99.2c-0.2-0.9-0.8-1.9-1.7-2.2c-0.1,0-0.3-0.1-0.4,0c-0.1,0.1-0.1,0.2,0,0.4c0.2,0.7,0.6,1.3,0.6,2
				c0,0.9-0.9,1.6-1.7,2c-1.2,0.5-2.6,0.6-3.9,0.3c-0.9-0.2-1.8-0.6-2.6-1.1c-0.8-0.4-1.7-0.8-2.5-1.2l4.9-5.7
				c1.2-0.1,2.3-0.4,3.3-1.1c1-0.7,1.7-2,1.4-3.2c-0.1-0.4-0.3-0.7-0.5-0.9c-0.4-0.3-1-0.3-1.4-0.1c-0.5,0.2-0.8,0.6-1.2,0.9
				c-0.7,0.7-1.3,1.5-2.2,2c-0.8,0.5-1.9,0.8-2.8,0.3c-0.1-0.1-0.2-0.1-0.3-0.3c-0.1-0.1-0.1-0.3-0.1-0.5c0.1-0.7,0.6-1.2,1.1-1.7
				c2.4-2.2,5.7-3.2,9-3.2c0.6,0,1.3,0,1.9,0.3c0.6,0.2,1.1,0.7,1.3,1.3c0.1,0.4,0.1,0.9,0,1.4c-0.5,2-2.1,3.5-3.9,4.6
				c-2.1,1.3-4.4,2.1-6.8,2.6l0,0c-0.4,0.4-0.1,1.1,0.3,1.4c0.4,0.3,1,0.3,1.5,0.3c2.3-0.2,4.6-1.2,6.5-2.5c1.6-1.1,3.1-2.5,3.8-4.3
				c0.7-1.8,0.5-4.1-0.9-5.4c-0.7-0.7-1.7-1.1-2.7-1.3s-2-0.1-3,0.1c-3.3,0.5-6.4,1.8-8.7,4.1c-0.5,0.5-0.9,1.2-1.1,1.9
				c-0.2,1.2,0.6,2.5,1.8,3c0.4,0.2,0.9,0.3,1.4,0.4c-1.5,1.7-3,3.4-4.5,5c-0.1,0.1-0.1,0.2-0.3,0.2c-0.1,0-0.2,0-0.4,0
				c-1.7-0.3-3.4-0.4-5.1-0.2c-0.9,0.1-1.8,0.3-2.6,0.8c-0.8,0.5-1.3,1.4-1.3,2.3c0.1,0.5,0.3,1,0.7,1.5c0.3,0.4,0.7,0.7,1.2,0.9
				c1.1,0.6,2.4,0.4,3.6,0.1c1.8-0.6,3.4-1.7,4.5-3.1c0.1-0.1,0.1-0.2,0.3-0.2c0.1,0,0.2,0,0.3,0c0.7,0.1,1.3,0.3,1.9,0.6
				c0.8,0.4,1.5,0.9,2.2,1.3c1.4,0.7,2.9,1.2,4.4,1.1C83.8,103.9,89.7,103.8,88.7,99.2z M72.7,100.7c-0.8,0.8-1.8,1.4-2.9,1.9
				c-0.9,0.4-2,0.6-2.9,0.3c-0.2-0.1-0.5-0.3-0.5-0.6c0-0.2,0.1-0.3,0.2-0.4c0.7-0.8,1.9-1.2,3-1.4c1-0.2,2.2-0.4,3.1,0.1
				L72.7,100.7z"/>
			<path class="st1" d="M93.2,95.1c0,0,4.1,0.4,5.1-2.8c0,0,0.6-2.4-1.8-1.6c-1.9,0.6-3.4,2-4.6,3.5c-0.4,0.5-0.7,1-0.9,1.6
				c-0.2,0.6-0.1,1.3,0.2,1.8c0.4,0.6,1.3,0.8,2.1,0.7c2.5-0.1,5.2-1.8,5.6-2c-0.2,0.5-0.2,1.1,0,1.6c0.1,0.2,0.2,0.5,0.4,0.5
				c0.3,0,0.5-0.2,0.7-0.5c0.8-1.2,2.1-2.5,3.4-3.2c-0.3,0.5-0.6,1.4-0.7,2c0,0-0.6,2.3,1.4,1.7c0,0,4.7-1.3,5-4.1
				c0,0,0-0.1-0.1-0.1c-0.1,0-0.1,0-0.2,0c-1.4,0.7-2.5,1.8-4,2.4c-0.1,0.1-0.3,0.1-0.4,0c-0.1-0.1,0-0.2,0-0.3c0,0,3.2-5.2,1.9-5.7
				c-0.5-0.2-1.6,0.4-1.6,0.4c-0.8,0.5-1.5,1.1-2.2,1.7c0.1-0.5,0.2-1.2,0.2-1.7c0-0.1,0-0.3-0.1-0.4c-0.2-0.5-0.5-0.1-0.5-0.1
				c-3.8,6-8.6,6.3-8.6,6.3c-0.3,0-0.5,0-0.7-0.2c-0.2-0.2-0.2-0.5-0.2-0.7C92.8,95.6,93,95.3,93.2,95.1z"/>
			<path class="st1" d="M149.5,100.7c0,0,0-0.1,0-0.1c0,0-0.1-0.1-0.1-0.1l-39.9,0l8.3-9.5l0.2-0.2c0.5-0.5,1.1-1.1,1.6-1.7
				c0.1-0.1,0.2-0.2,0.3-0.3c0.1-0.1,0.2-0.2,0.2-0.3c0,0,0,0,0,0c0.8-0.1,1.7-0.1,2.5-0.1c1.7,0,3.4,0,5-0.7
				c0.7-0.3,1.2-0.8,1.5-1.3c0.4-0.7,0.3-1.5-0.1-2c-0.4-0.4-1-0.6-1.4-0.7c-0.4-0.1-0.9-0.1-1.3-0.1c-2.4,0-4.6,1.2-6.1,2.4l-0.1,0
				c-0.3,0.2-0.5,0.4-0.8,0.5c-0.4,0.1-0.6,0.3-1,0.3c-7.2,0.3-9.7,0.1-16.8-0.3l-0.1,0c-1-0.1-2-0.1-3,0.1
				c-1.1,0.2-2.1,0.8-2.6,1.5c0,0,0,0.1,0,0.1c0,0,0.1,0.1,0.1,0.1l21.8,0l-9.2,10.4c-0.2,0.2-0.4,0.5-0.6,0.7
				c-0.1,0.1-0.5,0.5-0.5,0.6c-0.1,0.1-0.1,0.1-0.2,0.2l-0.1,0.1c0,0,0,0,0,0c-0.8,0.1-1.7,0.1-2.5,0.1c-1.7,0-3.4,0-5,0.7
				c-0.7,0.3-1.2,0.8-1.5,1.3c-0.4,0.7-0.3,1.5,0.1,2c0.4,0.4,1,0.6,1.4,0.7c0.4,0.1,0.9,0.1,1.3,0.1c2.4,0,4.6-1.2,6.1-2.4l0.1,0
				c0.3-0.2,0.5-0.4,0.8-0.5c0.3-0.1,0.6-0.1,1-0.1c7.2-0.3,27.7-0.2,34.9,0.2l0.1,0c1,0.1,2,0.1,3-0.1
				C148,102,148.9,101.5,149.5,100.7z M127.1,85.5c0,0,1.2,1.6-5.1,1.2C121.9,86.8,126.3,84.3,127.1,85.5z M100.1,103.3
				c0,0-1.2-1.6,5.1-1.2C105.3,102,100.9,104.5,100.1,103.3z"/>
			<path class="st1" d="M123.5,94.2c-0.7,0.8-1.4,1.5-2.3,2.1c-0.4,0.3-0.9,0.5-1.3,0.5c-0.1,0-0.3,0-0.4-0.1
				c-0.2-0.2-0.2-0.5-0.1-0.8c0.3-1.5,1.9-2.8,2.9-3.9c0.1-0.2,0.3-0.3,0.3-0.5c0-0.3-0.3-0.6-0.5-0.8l0,0c-0.7-0.4-1.2-0.1-1.4,0.1
				c-4.7,4.3-3.2,6.6-3.2,6.6c0.3,0.6,1.1,1,2.2,1.1c0.7,0,1.9-0.4,2.5-0.8c0.4-0.3,0.7-0.7,1.1-1c0.1,0.5,0.2,1,0.6,1.4
				c0.4,0.4,0.9,0.5,1.4,0.5c0.5,0,0.9-0.1,1.3-0.3c0.8-0.4,1.5-1,2.1-1.7c-0.1,0.4,0,0.8,0.2,1.3c0.3,0.5,0.8,0.8,1.3,0.8
				s1.1-0.1,1.6-0.3c0.7-0.3,1.4-0.8,2-1.3l0,0c0,0.7,0.6,1.4,1.3,1.6c0.7,0.2,1.5,0,2.2-0.2c1.2-0.5,2.3-1.3,3.1-2.3
				c2.3-2.9,0.8-4.6,0.8-4.6c-0.9-1-2.7-0.5-3.5,0.1c-1.5,1-2.2,2-3.1,2.9c-0.5,0.5-1,1.1-1.5,1.5c-0.6,0.4-1.2,0.8-1.9,0.9
				c-0.2,0-0.4,0-0.5-0.1c-0.3-0.1-0.3-0.5-0.3-0.8c0-1.1,0.7-2,1.4-2.9c0.6-0.8,1.3-1.6,2-2.4l3.4-4c0.3-0.3-0.2-0.3-0.2-0.3
				s-0.9,0-2,0.6c-1,0.5-3.9,4.2-4.7,5.3l-3.2,3.8c-0.4,0.4-0.9,0.7-1.5,0.7c-0.2,0-0.3,0-0.5-0.1c-0.3-0.2-0.3-0.8-0.2-1.2
				c0,0,0.6-2.7,4.9-2.9c0,0,0.9-1.9-1.8-1.8C125.1,91,123.5,94.2,123.5,94.2z M137.2,93.6c1-1,2.2-1.4,2.7-0.9
				c0.5,0.5,0.1,1.7-0.9,2.7c-1,1-2.2,1.4-2.7,0.9C135.8,95.8,136.2,94.6,137.2,93.6z"/>
		</g>
		<g>
			<path class="st2" d="M107.7,55.5l-73.8,49.9l73.8,48.8l73.8-48.8L107.7,55.5z"/>
		</g>
		<g>
			<path class="st1" d="M76.5,108.7v4.6h-0.8v-4.6h-1.3v-0.8h3.4v0.8H76.5z"/>
			<path class="st1" d="M82.4,113.3c-0.7,0-0.9-0.2-0.9-0.8v-0.9c0-0.4-0.2-0.7-0.6-0.7h-0.9v2.3H79v-5.3h1.8c1,0,1.4,0.5,1.4,1.3
				v0.4c0,0.6-0.2,0.9-0.8,1c0.6,0.1,0.8,0.5,0.8,1v0.8c0,0.1,0.1,0.2,0.3,0.2v0.7H82.4z M81.4,109.2c0-0.3-0.1-0.6-0.6-0.6h-0.9
				v1.7h0.9c0.4,0,0.7-0.2,0.7-0.7V109.2z"/>
			<path class="st1" d="M86.2,113.2l-0.3-1.4h-1.4l-0.3,1.4h-0.8l1.4-5.3h0.9l1.4,5.3H86.2z M85.2,109.1l-0.5,2.1h1L85.2,109.1z"/>
			<path class="st1" d="M89.8,113.2H89l-1.5-5.3h0.9l1,4.2l1-4.2h0.9L89.8,113.2z"/>
			<path class="st1" d="M92.5,113.2v-5.3h2.9v0.8h-2v1.4h1.5v0.7h-1.5v1.7h2v0.8H92.5z"/>
			<path class="st1" d="M96.8,113.2v-5.3h0.8v4.6h2v0.8H96.8z"/>
			<path class="st1" d="M104.4,113.4c-1,0-1.7-0.6-1.7-1.5v-0.3h0.8v0.1c0,0.6,0.3,0.9,0.9,0.9c0.5,0,0.8-0.3,0.8-0.8
				c0-0.4-0.2-0.7-1-1c-0.7-0.3-1.4-0.8-1.4-1.6c0-0.8,0.6-1.5,1.6-1.5c1,0,1.7,0.6,1.7,1.5v0.2h-0.8v-0.1c0-0.5-0.2-0.9-0.9-0.9
				c-0.5,0-0.7,0.3-0.7,0.7c0,0.4,0.2,0.6,1.1,1.1c0.9,0.4,1.3,0.8,1.3,1.6C106.1,112.7,105.4,113.4,104.4,113.4z"/>
			<path class="st1" d="M109.2,113.4c-1,0-1.7-0.6-1.7-1.5v-3.9h0.9v3.9c0,0.5,0.3,0.8,0.9,0.8c0.6,0,0.9-0.3,0.9-0.8v-3.9h0.8v3.9
				C110.9,112.8,110.2,113.4,109.2,113.4z"/>
			<path class="st1" d="M114.3,111.2h-0.9v2.1h-0.8v-5.3h1.8c1,0,1.4,0.6,1.4,1.4v0.5C115.7,110.6,115.3,111.2,114.3,111.2z
				 M114.9,109.3c0-0.4-0.1-0.6-0.6-0.6h-1v1.8h1c0.4,0,0.6-0.2,0.6-0.6V109.3z"/>
			<path class="st1" d="M118.9,111.2h-0.9v2.1h-0.8v-5.3h1.8c1,0,1.4,0.6,1.4,1.4v0.5C120.3,110.6,119.9,111.2,118.9,111.2z
				 M119.4,109.3c0-0.4-0.1-0.6-0.6-0.6h-1v1.8h1c0.4,0,0.6-0.2,0.6-0.6V109.3z"/>
			<path class="st1" d="M121.6,113.2v-5.3h0.8v4.6h2v0.8H121.6z"/>
			<path class="st1" d="M127.1,111.1v2.2h-0.8v-2.2l-1.5-3.2h0.9l1,2.4l1-2.4h0.9L127.1,111.1z"/>
			<path class="st1" d="M133.4,113.4c-1.2,0-1.7-0.8-1.7-1.7v-2.3c0-0.9,0.5-1.7,1.7-1.7c1.2,0,1.7,0.7,1.7,1.6v0.4h-0.8v-0.4
				c0-0.5-0.3-0.9-0.9-0.9c-0.6,0-0.9,0.4-0.9,0.8v2.4c0,0.5,0.3,0.8,0.9,0.8c0.6,0,0.9-0.3,0.9-0.9v-0.4h0.8v0.4
				C135.1,112.7,134.6,113.4,133.4,113.4z"/>
			<path class="st1" d="M138.1,113.4c-1.2,0-1.7-0.7-1.7-1.7v-2.1c0-1,0.5-1.7,1.7-1.7c1.2,0,1.7,0.7,1.7,1.7v2.1
				C139.8,112.6,139.3,113.4,138.1,113.4z M139,109.4c0-0.5-0.3-0.9-0.9-0.9c-0.6,0-0.9,0.4-0.9,0.9v2.3c0,0.5,0.3,0.9,0.9,0.9
				c0.6,0,0.9-0.4,0.9-0.9V109.4z"/>
		</g>
		<g>
			<path class="st1" d="M91.9,124.9l-1.5,2.6h-0.7l-0.3-3.8h-0.6l0.1-0.5h1.9l-0.1,0.5h-0.6l0.1,2.9h0l1.4-2.5l0-0.5h-0.6l0.1-0.5
				h1.9l-0.1,0.5h-0.6l0.1,2.9h0l1.6-2.9h-0.5l0.1-0.5h1.6l-0.1,0.5h-0.4l-2.1,3.8H92L91.9,124.9z"/>
			<path class="st1" d="M97.3,126.4c-0.1,0.2-0.1,0.3-0.1,0.4c0,0.1,0.1,0.2,0.1,0.2c0.1,0,0.3-0.2,0.4-0.6l0.3,0.1
				c-0.3,0.8-0.6,1.1-1,1.1c-0.3,0-0.5-0.2-0.5-0.6c0,0,0-0.1,0-0.1l0,0c-0.2,0.5-0.6,0.7-1,0.7c-0.6,0-0.9-0.5-0.9-1
				c0-0.7,0.3-1.2,0.6-1.6c0.3-0.3,0.6-0.5,1-0.5c0.4,0,0.6,0.3,0.6,0.5l0.1-0.5h0.7L97.3,126.4z M96.8,125.3c0-0.3-0.1-0.5-0.3-0.5
				c-0.6,0-0.9,1.1-0.9,1.6c0,0.4,0.1,0.6,0.4,0.6C96.4,126.9,96.8,125.8,96.8,125.3z"/>
			<path class="st1" d="M101.2,126.9c0.1,0,0.3-0.2,0.4-0.6l0.3,0.1c-0.3,0.8-0.6,1.1-1,1.1c-0.3,0-0.6-0.2-0.6-0.6
				c0-0.6,0.4-1.3,0.4-1.7c0-0.1-0.1-0.2-0.2-0.2c-0.3,0-0.8,0.5-1.4,2.5h-0.8l0.6-2.1c0.1-0.4,0.1-0.5,0-0.5
				c-0.1,0-0.3,0.3-0.5,0.7l-0.3-0.1c0.3-0.6,0.6-1,1-1c0.3,0,0.5,0.2,0.5,0.6c0,0.2,0,0.4-0.1,0.7l0,0c0.4-0.9,0.9-1.3,1.4-1.3
				c0.4,0,0.6,0.3,0.6,0.7c0,0.5-0.5,1.4-0.5,1.8C101.1,126.9,101.1,126.9,101.2,126.9z"/>
			<path class="st1" d="M105.6,126.4c-0.2,0.8-0.6,1.1-1,1.1c-0.3,0-0.5-0.2-0.5-0.6c0,0,0-0.1,0-0.1l0,0c-0.2,0.5-0.6,0.7-1,0.7
				c-0.6,0-0.9-0.5-0.9-1c0-0.7,0.3-1.2,0.6-1.6c0.3-0.3,0.6-0.5,1-0.5c0.4,0,0.6,0.2,0.6,0.5l0.4-1.4h-0.5l0.1-0.5h1.3l-0.9,3.4
				c-0.1,0.2-0.1,0.3-0.1,0.4c0,0.1,0.1,0.2,0.1,0.2c0.1,0,0.3-0.2,0.4-0.6L105.6,126.4z M104.3,125.3c0-0.3-0.1-0.5-0.3-0.5
				c-0.6,0-1,1.1-1,1.6c0,0.4,0.1,0.6,0.4,0.6C103.9,126.9,104.3,125.8,104.3,125.3z"/>
			<path class="st1" d="M106.6,126.2c0,0.1,0,0.1,0,0.1c0,0.5,0.3,0.7,0.6,0.7c0.3,0,0.6-0.2,0.9-0.6l0.3,0.2
				c-0.3,0.5-0.7,0.8-1.4,0.8c-0.7,0-1.1-0.5-1.1-1.2c0-1,0.9-1.9,1.9-1.9c0.6,0,0.9,0.3,0.9,0.7
				C108.5,125.6,107.9,126.1,106.6,126.2z M106.6,125.9c0.9-0.1,1.2-0.4,1.2-0.8c0-0.2-0.1-0.3-0.3-0.3
				C107.1,124.7,106.8,125.3,106.6,125.9z"/>
			<path class="st1" d="M109.6,125.3c0.1-0.4,0.1-0.5,0-0.5c-0.1,0-0.3,0.3-0.5,0.7l-0.3-0.1c0.3-0.6,0.6-1,1-1
				c0.3,0,0.5,0.2,0.5,0.6c0,0.2,0,0.4-0.1,0.7l0.1,0c0.4-0.8,0.7-1.3,1.1-1.3c0.3,0,0.5,0.2,0.5,0.5c0,0.3-0.2,0.6-0.5,0.6
				c-0.2,0-0.4-0.1-0.4-0.4c-0.2,0.1-0.6,0.6-1.1,2.4H109L109.6,125.3z"/>
			<path class="st1" d="M116.3,124.9l-1.5,2.6h-0.7l-0.2-3.8h-0.6l0.1-0.5h1.9l-0.1,0.5h-0.6l0.1,2.9h0l1.4-2.5l0-0.5h-0.6l0.1-0.5
				h1.9l-0.1,0.5H117l0.1,2.9h0l1.6-2.9h-0.5l0.1-0.5h1.6l-0.1,0.5h-0.4l-2.1,3.8h-0.8L116.3,124.9z"/>
			<path class="st1" d="M119.9,126.2c0,0.1,0,0.1,0,0.1c0,0.5,0.3,0.7,0.6,0.7c0.3,0,0.6-0.2,0.9-0.6l0.3,0.2
				c-0.3,0.5-0.7,0.8-1.4,0.8c-0.7,0-1.1-0.5-1.1-1.2c0-1,0.9-1.9,1.9-1.9c0.6,0,0.9,0.3,0.9,0.7
				C121.8,125.6,121.2,126.1,119.9,126.2z M119.9,125.9c0.9-0.1,1.2-0.4,1.2-0.8c0-0.2-0.1-0.3-0.3-0.3
				C120.4,124.7,120.1,125.3,119.9,125.9z"/>
			<path class="st1" d="M122.3,126l0.7-2.5h-0.5l0.1-0.5h1.3l-0.9,3.3c0,0.2-0.1,0.4-0.1,0.5c0,0.1,0.1,0.2,0.1,0.2
				c0.2,0,0.3-0.2,0.5-0.6l0.3,0.1c-0.3,0.8-0.6,1.1-1,1.1c-0.4,0-0.6-0.2-0.6-0.6C122.2,126.7,122.2,126.4,122.3,126z"/>
			<path class="st1" d="M124.3,126l0.7-2.5h-0.5l0.1-0.5h1.3l-0.9,3.3c0,0.2-0.1,0.4-0.1,0.5c0,0.1,0.1,0.2,0.1,0.2
				c0.2,0,0.3-0.2,0.5-0.6l0.3,0.1c-0.3,0.8-0.6,1.1-1,1.1c-0.4,0-0.6-0.2-0.6-0.6C124.1,126.7,124.2,126.4,124.3,126z"/>
		</g>
		<line class="st1" x1="74.5" y1="117.8" x2="139.7" y2="117.8"/>
	</g>
</g>
</svg>
