<svg xmlns="http://www.w3.org/2000/svg" xmlns:xlink="http://www.w3.org/1999/xlink" width="13" height="25" viewBox="0 0 13 25"><defs><path id="wx1sa" d="M54.18 722.25c0 .59.33 1.1 1 1.56.41.26 1.2.62 2.36 1.08 1.16.45 2.01.83 2.55 1.12a6.46 6.46 0 0 1 2.05 1.66c.57.78.86 1.7.86 2.74a5.5 5.5 0 0 1-1.38 3.73 6.05 6.05 0 0 1-3.68 1.98v2.3c0 .16-.05.3-.16.4a.55.55 0 0 1-.4.18h-1.92a.55.55 0 0 1-.4-.17.57.57 0 0 1-.17-.42v-2.34a9.4 9.4 0 0 1-2.6-.85 8.5 8.5 0 0 1-2.12-1.5.6.6 0 0 1-.05-.77l1.43-2c.1-.14.23-.21.4-.23.18-.01.32.03.41.13.67.52 1.34.94 2 1.27.77.32 1.5.48 2.2.48.8 0 1.43-.2 1.9-.63.4-.4.58-.85.58-1.37 0-.52-.3-1-.9-1.41-.42-.26-1.19-.62-2.32-1.08a33.65 33.65 0 0 1-2.55-1.12 6.77 6.77 0 0 1-2.15-1.8 4.88 4.88 0 0 1-.85-2.89c0-1.27.42-2.38 1.26-3.34a6.2 6.2 0 0 1 3.36-1.93v-2.44c0-.17.06-.3.17-.42a.55.55 0 0 1 .4-.17h1.91c.16 0 .3.06.4.17.12.11.17.25.17.42v2.3c.8.09 1.59.3 2.37.63.77.32 1.43.73 1.97 1.22.1.1.16.2.2.34.03.13.01.26-.05.39l-1.15 2.1a.45.45 0 0 1-.35.3.55.55 0 0 1-.46-.1 6.35 6.35 0 0 0-3.67-1.37c-.8 0-1.43.17-1.9.5-.48.35-.72.8-.72 1.35z"/></defs><g><g transform="translate(-50 -714)"><use fill="#999" xlink:href="#wx1sa"/></g></g></svg>