<svg xmlns="http://www.w3.org/2000/svg" xmlns:xlink="http://www.w3.org/1999/xlink" width="25" height="22" viewBox="0 0 25 22"><defs><path id="zfkda" d="M151.12 718.69h-.78c-.65 0-1.2.23-1.66.68-.45.46-.68 1.01-.68 1.66v12.5c0 .65.23 1.2.68 1.66.46.46 1.01.68 1.66.68h.78zm21.2.68c-.46-.45-1.01-.68-1.66-.68h-.79v17.18h.79c.65 0 1.2-.22 1.66-.68.45-.45.68-1 .68-1.66v-12.5c0-.65-.23-1.2-.68-1.66zm-8.7-.68h-6.25v-1.57h6.25zm4.7 0h-1.57v-2.35c0-.65-.23-1.2-.68-1.66-.46-.45-1.01-.68-1.66-.68h-7.82c-.65 0-1.2.23-1.66.68-.45.46-.68 1.01-.68 1.66v2.35h-1.56v17.18h15.62z"/></defs><g><g transform="translate(-148 -714)"><use fill="#999" xlink:href="#zfkda"/></g></g></svg>