<svg xmlns="http://www.w3.org/2000/svg" xmlns:xlink="http://www.w3.org/1999/xlink" width="31" height="25" viewBox="0 0 31 25"><defs><path id="pc1ma" d="M267.6 735.97c-.45-.45-.68-1-.68-1.66 0-.65.23-1.2.68-1.66.46-.45 1-.68 1.65-.68.65 0 1.2.23 1.65.68.45.46.67 1.01.67 1.66 0 .65-.22 1.2-.67 1.66-.46.46-1 .69-1.65.69-.65 0-1.2-.23-1.65-.69zm-17.73-9.47v-.59l4.85-4.88h2.13v5.47zm2.23 9.47c-.45-.45-.68-1-.68-1.66 0-.65.23-1.2.68-1.66.46-.45 1-.68 1.65-.68.65 0 1.2.23 1.65.68.45.46.67 1.01.67 1.66 0 .65-.22 1.2-.67 1.66-.46.46-1 .69-1.65.69-.65 0-1.2-.23-1.65-.69zm7.08-21.97c-.65 0-1.2.23-1.65.68-.45.46-.68 1.01-.68 1.66v2.35h-2.13c-.65 0-1.2.23-1.65.68l-4.84 4.88c-.45.46-.68 1.01-.68 1.66v5.28h-.39c-.32 0-.6.11-.82.34-.23.23-.34.5-.34.83v.78c0 .33.11.6.34.83.23.23.5.34.82.34h1.94c0 1.3.45 2.41 1.36 3.32.9.91 2 1.37 3.29 1.37 1.3 0 2.39-.46 3.3-1.37a4.54 4.54 0 0 0 1.35-3.32h6.2c0 1.3.45 2.41 1.36 3.32.9.91 2 1.37 3.29 1.37 1.3 0 2.39-.46 3.3-1.37a4.54 4.54 0 0 0 1.35-3.32h1.94c.32 0 .6-.11.82-.34.23-.23.34-.5.34-.83v-16.8c0-.65-.23-1.2-.68-1.66-.45-.45-1-.68-1.65-.68z"/></defs><g><g transform="translate(-246 -714)"><use fill="#999" xlink:href="#pc1ma"/></g></g></svg>